<svg xmlns="http://www.w3.org/2000/svg" fill="currentColor" viewBox="0 0 202 110"><path d="M169 91h2q6 0 6-6V67q0-12 12-12-12 0-12-12V25q0-6-6-6h-2V0h11q14 0 14 14V38q0 8 8 8V64q-8 0-8 8V96q0 14-14 14H169M95 72 80 57 68 69 56 57l-8 8L62 79 45 96q-4 4 0 9l2 2q5 4 9 0L73 90l14 14 8-8L83 84m24-54 15 15 26-26V4H133M119 84 107 96l8 8 14-14 17 17q4 4 9 0l2-2q4-5 0-9L140 79l14-14-8-8-12 12L69 4H54V19M33 19H31q-6 0-6 6V43q0 12-12 12 12 0 12 12V85q0 6 6 6h2v19H22Q8 110 8 96V72q0-8-8-8V46q8 0 8-8V14Q8 0 22 0H33"/></svg>