<svg xmlns="http://www.w3.org/2000/svg" fill="currentColor" viewBox="0 0 52 57"><path d="M39 36c1 0 2 1 1 3 0-1 0-3-1-3m4-24-1 1M0 22c0-3 3-3 5-4l1-4-3-2V11l5 2 3-2L5 7H6l6 3L8 6l4 1 1 2 5-2L29 6c0-1 2-3 1-5s-5 1-6 2c1-2 6-4 7-2s-1 4-2 5l3 2c1 0 1 0 1 1h1c0-2 1-3 1-5-1 0-1 0-1 0h1c0 2 0 4-1 5v1c1-1 4-4 4-6 0 2-2 3-3 4 3-1 5-3 7-4l3-2-11 9v1l6-2-4 3 2 1 4-2-2 2c0-1 2-1 3-2v1s0 0 0 0c-1 0-3 0-4 1l1 1c1-1 2-1 2-2l-2 2c2 1 3 3 4 4 1-1 2 0 3-1h1c-1 1-1 3-8 11v2c2 1 9 0 11-1H50s0 0 0 0h2c-2 2-9 2-12 2l-1 2h4c4 1 8 0 7 1 0 1 0 2-3 2H46c-2 1-6-2-8-2l-1 1c1 2 3 4 4 5v1l-5-5c-1 1-2 2-3 3 2-1 4 1 3 3 1-2-2-4-4-2 0 0 0 0 1 0 0 0 1 0 1 0H33c1 5 1 7-5 6 1 3 0 8-2 7 2-1 2-3 2-7l-4-1c-2 1-3-1-4-1l-3 4v2c0 3 0 4-2 5H14c4-2 3-4 3-7-3 3-4 6-7 8 3-4 7-6 7-13-2 3-8 11-11 11 0-2 1-3 2-4 0 1-1 2-1 3 2-1 7-7 9-10H15c0 2-2 4-3 4l2-3-4 3V47l1-1c1 0 2-1 3-2V43H13s0 0-1 1c-1 0-1 0-2-1-4 7-11-4-5-7-1-3-5-3-5-7 0-2 3-2 3-4 1-2 1-4 1-6-2 0-3 1-3 3 1 0 2 1-1 2m4 8V30c0 2 0 4 2 4L4 30V27L3 29m2 7c-1 1-1 2-1 2l1 1s1 0 1 0c0 1 0 1 0 2l3 1V41L5 38l1-1-1-1M7 26l2-5H8c-2 0 0 0-3 5m2 3c0-1 0-2-1-2 0 1 1 2 1 2m2 0c0-1 0-2-1-2l1 2m7 10-2-1 1-1V36l-2 1 1 1M9 36l1 2V36M6 37l4 3c0-1-3-2-4-3m4-5 1-1H9m1 9c0 1 0 1 1 1l-1-1m1-1 1 1V39m2-7-1-2-1 2m0 2v1h1l-1-1m1 2c-1 0 0 1 0 1l1-1M11 19l2 1 1-2-3 1m0 3-2 4c1 0 3-2 2-4M10 36 9 34 8 36M7 35l2-2-2-2-1 3m0-1 1-2V30v1L6 33s0 0 0 0m3 9c-2 0-3-2-4-3v1H4c0 2 1 4 4 3l1-1M3 39c-1 3 2 6 5 6 0 0 1-1 2-2H9c-4 3-7-2-5-3L3 39m7 2-1 1 1 1 1-2H10m3 2s0 0 0 0l-1-1c0-1 0-1 0-1l-1 2m1-3v1h1l1-1H12m2 2h2l-1-1-1 1m4 1V42H17l-1 1m0-5v1l2-1-2-1v1m2 9 2-4-2 1v3m0-37v3c0-2 0-2 0-3m0 12H32h1l-1-1v1m1-3V18l-1 1h1M20 38l-1 2h1l1-1-1-1m-1 3c1 1 1 0 1 0m0-28v1h1l-1-1m0 24 1-1H18s2 1 2 1m3 2H22c-1 0-1 1-1 1h2V39m4-25-1-2H24c-1 1-2 0-2 2m3 24-1 1h2l-1-1m1 0 1 1 2-1H27 26m1-28v1s1 0 1 0-1-1-1-1m3 28-2 1h1 1V38m1 2V39l-1 1h1m-1-2-2-26v3l2-2-2-1M27 8c-1 1-2 1-3 0 1 2 4 2 6 2L27 8m-6 4h3 1V11M18 9l2 2 3-2H18m2 33h1l1-1-2 1m4 2-2-1v1m1-3v1h3l5-1-5-1-3 1m0-4 3-3H25m7 13 1-1-1-5-5 2 1 3 4 1m2-10H33v1m1-10-1 1h1V28m7-7-1-2-4-3-1 1 5 4m4 2-2 1-2 3h1c2-1 3-2 3-4m-3 2V22l-1 1m-4 4h1c1-2 0-2-2-2m3 0c1-3-1-6-2-6 0 1 0 3-1 5l3 1m0 3H37v1l1-1m0-2v1l1-1H38m1 2H38v1h1c0-1 0-1 0-1m1-4-1-3v3c1 0 1 0 1 0m0-2h1V21l-1 1M35 34c-2 1-2 4 0 1V34m2 0h1V32H37v2m0-3h2c0-1 0-1 0-2H38l-1 2m2-6c0 2 1 1 1-1 0 0 0 0 0 0H39v1m8-6v1l-2 2c0 3-1 5-4 5v2c4-3 5-3 6-10m-3 0c0 1 1 2 1 2 2-1 2-3-1-2m0 4-1-3-1 2v1h2m-2-3v1l1-2-1 1m0-2c-1 0-1 0-1 0v2l1-1m0-2-1-1c-1 0-2 0 0 2l1-1m-3-3s0 0 0 0 0 0 0 0m0 2c-1 0-1-1-1-1s0 0-1 0v1h2m-5-2 3 1s0 0 0-1H36m-2 5-1 2 2 2-1-4M20 8h4c1 0 1 0 2 1l1-1-3-1M18 9h3c-1 0-2-1-3 0m2-2-2 1h1l1-1m-2 8s0 0 0-1l-2 2c1 0 2 0 2-1m0-1c-1 0-2 0-3 1h1m1-6-3 1h2l1-1m-1 2H15l-1 1h1l1-1s0 0 0 0m-2 2-1-1 1 3V13m-2 1c-4 0-4 3-2 4l3-3M6 17l2 2-1-4M5 18v3l2-2-2-1"/></svg>