<svg xmlns="http://www.w3.org/2000/svg" fill='currentColor' viewBox="0 0.7 447 504.3"><path d="M224 505c-7 0-14-2-20-5l-62-37c-9-5-3-7-1-8l28-12c2-1 2-1 4 0l48 28c1 1 4 1 5 0L411 365c2-1 3-3 3-5V146c0-2-1-4-3-5L226 35c-1-1-4-1-5 0L36 141c-2 1-3 3-3 5V360c0 2 1 4 3 4l51 30c27 13 44-3 44-19V164c0-3 2-5 5-5h24c3 0 5 2 5 5V375c0 37-20 58-54 58-11 0-20 0-43-12L20 393C8 386 0 373 0 359V146c0-13 8-26 20-33L204 6c12-7 27-7 39 0L428 113c12 7 19 20 19 33V360c0 13-7 26-19 33L243 500c-6 3-13 5-19 5ZM373 295c0-40-27-51-84-58-57-8-63-12-63-25 0-11 5-26 47-26 38 0 52 8 58 34 0 2 3 4 5 4h24c2 0 3-1 4-2s1-2 1-4c-3-44-33-64-92-64-53 0-84 22-84 59 0 41 31 52 82 57 60 6 65 15 65 27 0 20-17 29-56 29-48 0-59-12-63-37 0-2-2-4-5-4H188c-3 0-5 2-5 5 0 31 17 68 98 68 58 0 92-23 92-63Z"/></svg>