<svg xmlns="http://www.w3.org/2000/svg" fill='currentColor' viewBox="0 0 260 228"><path d="M65 4q23-14 65 25Q169-8 191 2q24 11 13 69 56 20 56 43t-56 43q12 57-13 69-22 9-61-27-43 39-65 25-21-15-9-67Q0 139 0 113 0 89 56 71 44 17 65 4m6 8Q55 23 66 68q14-3 35-5 8-12 21-27Q85 3 71 12m117 0q-15-9-51 24 12 13 22 27 17 2 34 6 11-48-5-57m61 102q0-18-48-33-6 17-13 33 8 15 13 32 48-15 48-32M188 216q17-10 6-57-17 4-34 5-10 14-22 28 34 32 50 24M71 215q15 10 52-23-12-14-23-28-18-1-34-5-11 45 5 56M10 113q0 19 48 34 6-17 13-33-7-16-12-33-49 16-49 32M69 78l8 24L92 75m38-32-16 19h32m45 17-25-5 16 27m9 48-8-23-16 27m-37 31 16-19H114M69 149l24 5-16-28m6-12q9 21 24 41 23 1 46 0 14-20 24-42-10-21-24-40-24-2-47 0-14 20-23 41m24 0a1 1 0 0045 0 1 1 0 00-45 0"/></svg>