<svg xmlns="http://www.w3.org/2000/svg" fill='currentColor' viewBox="0 0 512 384"><path d="M441 221c-18 0-34 4-47 10-5-9-9-17-10-24s-2-11-1-20 6-21 6-22c0 0-1-5-11-5-11 0-20 2-21 5s-3 9-4 15c-2 9-20 43-31 60-10-11-12-17-8-38s6-20 6-21-1-6-11-6c-11 0-20 2-21 5l-4 15s-27 62-34 77c-3 7-6 13-8 17s0 0 0 1c-2 3-3 5-3 5-1 2-3 5-4 5 0 0-1-7 1-16l12-51s2-5-6-8-11 3-11 3 8-34-16-34c-14 0-35 17-45 31l-51 28c-30-32-83-53-80-94 0-15 6-54 101-102 79-39 141-28 152-4 16 34-33 97-115 106-31 3-47-9-51-13-4-5-5-5-7-4s-1 5 0 8c3 6 13 17 30 23 15 5 51 8 95-9 49-19 88-72 77-117-12-45-87-60-157-35C121 27 76 51 43 82 4 118-2 150 0 163c10 47 74 78 100 100-16 9-66 35-78 62-14 31 2 53 13 56 33 10 68-7 86-34 18-28 16-64 7-81l29-16c-3 9-5 19-6 34-2 17 6 40 15 49 4 4 9 4 12 4 11 0 16-9 22-20 7-13 13-28 13-28s-8 41 13 41c7 0 15-9 18-14l22-40 25-57s1 7 5 20c2 8 7 16 10 24l-12 17c-10 12-23 26-24 30-2 5-2 8 2 11 3 2 8 2 13 2 9-1 15-3 18-4 5-2 11-5 17-9 10-7 16-18 15-32 0-7-3-15-6-22 19-27 31-53 31-53s1 8 5 21c2 6 6 13 9 20-15 13-24 27-27 36-6 17-2 24 7 26 13 2 25-7 31-11 10-8 20-18 19-32 0-6-2-13-4-19 12-5 29-8 49-5 45 5 54 33 52 44-2 12-11 18-14 20-7 4-5 8 1 6 3-1 23-10 24-31 1-28-25-58-71-57ZM97 336c-14 16-35 23-44 17-9-5-6-29 13-46l47-33c6 24 0 45-16 62Zm108-73c-5 13-16 45-22 43-6-1-9-26-2-50 4-12 13-26 18-32 8-9 17-12 19-8 3 5-10 39-13 47Zm89 43c-9 4-5-1-5-1l25-28c0 15-14 25-20 29Zm68-16c-2-1-1-5 4-16 2-5 7-13 15-20 1 3 2 6 2 9 0 18-13 24-21 27Z"/></svg>