<svg xmlns="http://www.w3.org/2000/svg" fill="currentColor" viewBox="0 0 116 116"><path d="M66 84c-2-3 3-2 6-3s2 2 5 2c-6-8 2-5-16-2 2 4 3 6 6 5M51 72q0 2-1 5 2-1 5 1M27 98c21 0 20 11 43 8-18-2-23-14-43-8m-7-5c27-17 46 22 75 1-33 11-46-21-76-3m-6-7q7-6 13-9-2-24 13-37c-16 0-22 18-22 6s11-18 17-15-1-4-7-6S47 9 46 30c7-11 19-8 23 0s-6-1-15 4c6 0 13 7 11 14s-2 0-17-8c6 9-12 25-6 0-13 13-6 33-2 33s4 0 4 2-1 6 2-1 3-6 2-8-5-8-2-9 2 0 8 11 5 9 11 8-1-2-3-1-7-10-9-13 1-2 5-2 2-1 2-2 3-3 4-1l8 14q-4 0-8-7c4 9 6 8 12 8s8 1 3 5c2 6 3 7 4 7s2 0-1-4c1-1 16 6 19 6A52 52 0 1013 84M0 58a1 1 0 01116 0A1 1 0 010 58"/></svg>