<svg xmlns="http://www.w3.org/2000/svg" fill="currentColor" viewBox="0 0 800 790"><path d="M531 470c104-53 5-11-6-1m-7 5c15-10-27-5-18 1m-39-13c5-1 1 2 7 36s6-11 3-27 24-12 20 37-36 39-40 3-3-43 10-49m31-101c-12-7-4 4-4 24s14 19-27 19-44-10-64 10 0 48 24 55 22-5 21 23 0 59 33 56 22-54 17-30-21 33-32 21-23-51-9-72 43 1 41 17 8 36 7 9-14-22 13-27 57-20 71-35 33-51 10-62-99 44-96 31-5-14-2-18 0-12-3-21m-13-63c38-17 60 16 11 32s-61-17-11-32m-1-3c61-20 51 31 9 39s-48-9-43-17 17-18 34-22v-8c-14 3-41 14-44 33s28 20 42 20 5 25 15 13-17-11 17-22 32-56-30-44m65-52c-40-7-150-3-199 113 21-88 123-136 200-115m-50-15c-23 28 78-39 154 104S535 642 402 536s-46-296 49-303-25-63-102 72 25 311 197 285 200-373-52-372m114-55c-91-67-103-35-65-84s110-30 68 79m28 3c9-32 20-102-8-134s-69-13-106 24-17 55-7 37 39-49 77-45 46 73 36 80 8-23-14-56-64-10-81 15-25 30-9 36 66 34 76 44 11-5 14 0 9-8 22-1m-23 72c1 26 32 25 28-1s-26-27-28 1M237 462c18-25-25 69-15 34m1-34c22-35-26 76-15 35m1-68c-24 62-21 15 0-1m-44 47c-2-3 4-7 6-4s-4 7-6 4m-3 1c6 40 48 40 70 34s34-31 36-43-5-26-7-25-6-1-2-3 0-16-5-8-10 11-7 1 9-12-10-21-74-9-75 65m-2 4c-4-20 7-50 21-63s56-20 74 5 20 41 7 67-86 49-102-9h-9c8 53 98 53 120 11s5-59-17-80-109-23-103 69m83-146c5 29 31 22 31-6s-36-27-31 6m33-211c-9 2-33 14 39-3s121-6 100-13-95 5-139 16m-48 89c-11-30-18 10 0 5m-15 7c-13-22-16 9 0 5m-20 14c-12-19-13 8 0 6m-21 20q7-6-9-25-2 18 9 25m-20-2q-1 9 7 10 0-6-7-10m-10 6c8 5 3-25 10-14s12 3 8-8 2-18 11-2c14-12 7-18 10-19s18 2 18-17 4 2 12-4-5-22 7-16 18 0-24-47-109 1-52 127m-31-83c5 28 10-2 7-11s11-52 37-54 30 16 47 22 20 36 30 42-9-33-42-64-84 7-79 65m27 92c4 2-6-21-13-36s-3-28-10-39 2 59 23 75M73 146c5 0 20-86 91-68-36-23-81 6-91 68m5 96c16 33 31 84-2 22C35 308-77 580 181 709s467-64 501-133 17-14 29-41 18-113 17-139-91-8-32-111C616 126 409 82 313 109s-75 15-64 39-12-3-17-10-21 5-10-11C161 27 35 50 78 242m-11 8C24 29 173 17 231 117c83-31 152-43 254-17C569-74 726 0 640 191c27 25 47 56 65 85 79-39 144 65 36 113 11 70-14 299-279 383S-144 578 67 250"/></svg>